<?xml version="1.0" standalone="no"?>
<!DOCTYPE svg PUBLIC "-//W3C//DTD SVG 20010904//EN"
 "http://www.w3.org/TR/2001/REC-SVG-20010904/DTD/svg10.dtd">
<svg version="1.0" xmlns="http://www.w3.org/2000/svg"
 width="225.000000pt" height="225.000000pt" viewBox="0 0 225.000000 225.000000"
 preserveAspectRatio="xMidYMid meet">

<g transform="translate(0.000000,225.000000) scale(0.100000,-0.100000)"
fill="#000000" stroke="none">
<path d="M0 1125 l0 -1125 1125 0 1125 0 0 1125 0 1125 -1125 0 -1125 0 0
-1125z m1119 640 l0 -365 -30 -15 c-16 -9 -35 -13 -41 -9 -6 4 -9 3 -5 -2 3
-5 -14 -17 -36 -27 -23 -10 -63 -29 -89 -43 -27 -13 -55 -21 -64 -17 -10 4
-15 2 -11 -3 7 -13 -197 -110 -220 -106 -7 2 -13 -2 -13 -7 0 -8 -31 -23 -50
-24 -3 0 -11 -7 -18 -14 -7 -7 -18 -13 -23 -13 -14 0 -11 16 6 30 8 7 15 18
15 26 0 7 4 15 9 18 5 4 7 -2 4 -13 -6 -23 8 -33 27 -19 12 8 12 9 -2 4 -14
-4 -17 0 -16 22 2 37 9 47 20 31 6 -10 7 -7 3 10 -5 17 -4 22 5 16 9 -5 11 -4
6 4 -7 11 41 97 73 129 9 8 15 18 13 21 -4 10 142 250 150 245 4 -3 5 2 2 10
-3 9 -2 16 2 16 5 0 18 18 28 40 10 22 28 48 39 57 19 18 20 17 7 -7 -7 -14
-18 -28 -24 -32 -8 -5 -7 -8 2 -8 7 0 17 11 24 25 6 13 15 22 21 18 6 -3 7 -1
4 4 -4 6 0 16 8 23 8 7 15 17 15 22 0 6 -8 0 -18 -13 -11 -13 -21 -18 -25 -12
-4 6 6 23 21 39 15 15 21 24 14 20 -7 -4 19 44 58 106 38 62 77 128 86 146 9
17 18 32 20 32 2 0 4 -164 3 -365z m-552 -831 c18 -12 30 -24 26 -27 -3 -3 3
-5 13 -5 11 1 36 -9 57 -22 29 -17 35 -25 25 -32 -9 -6 -6 -7 10 -3 19 5 21 3
18 -17 -3 -13 -5 -25 -5 -27 -1 -3 -8 4 -16 15 -14 18 -14 17 -4 -9 7 -15 13
-26 13 -25 1 2 10 14 21 27 11 14 14 21 6 16 -9 -5 -12 -4 -8 2 8 13 83 -23
80 -37 -2 -6 0 -9 5 -8 15 4 52 -14 47 -23 -4 -5 -11 -9 -16 -9 -6 0 -7 5 -3
11 4 8 0 8 -15 0 -26 -14 -26 -17 -3 -17 9 -1 26 -4 37 -8 16 -7 17 -6 5 3
-12 10 -11 11 10 9 14 -2 24 -9 22 -16 -1 -8 2 -11 7 -7 11 6 72 -22 106 -49
12 -10 3 -8 -23 5 -24 12 -45 19 -48 16 -3 -2 9 -10 26 -16 17 -6 29 -14 26
-19 -3 -5 8 -8 24 -7 34 2 94 -30 85 -45 -3 -5 1 -7 9 -4 13 5 15 -25 15 -223
l1 -228 -29 34 c-15 19 -32 32 -37 29 -10 -6 -177 228 -177 248 0 7 -3 11 -7
9 -14 -9 -89 110 -86 136 2 16 -2 26 -10 26 -10 0 -10 -5 -2 -21 10 -19 10
-20 -5 -7 -10 7 -17 19 -17 25 -1 6 -14 26 -30 45 -16 19 -27 38 -24 43 3 5 0
7 -8 6 -8 -2 -12 4 -10 16 2 12 -1 16 -9 10 -9 -5 -10 -2 -6 9 4 10 2 16 -5
14 -6 -1 -12 3 -15 10 -3 8 3 11 18 8 12 -2 18 -1 15 3 -4 4 -17 7 -29 7 -12
1 -21 6 -19 13 1 7 -3 11 -9 10 -6 -2 -13 2 -16 8 -2 7 6 11 19 10 13 -1 22
-7 21 -14 -2 -6 4 -9 12 -6 24 10 -8 34 -41 31 -22 -1 -29 2 -28 15 1 10 -3
16 -10 15 -6 -1 -11 6 -11 15 0 9 -4 20 -9 25 -5 4 -6 3 -2 -4 14 -24 0 -13
-23 18 -24 32 -21 32 36 -7z m545 -782 c5 -2 8 -13 8 -25 0 -17 -6 -12 -30 23
-35 53 -40 76 -8 34 13 -16 26 -30 30 -32z"/>
<path d="M1085 2030 c-4 -6 -11 -7 -17 -4 -7 4 -8 2 -4 -4 10 -16 23 -15 30 3
6 17 0 20 -9 5z"/>
<path d="M987 1893 c-4 -3 -7 -11 -7 -17 0 -6 5 -5 12 2 6 6 9 14 7 17 -3 3
-9 2 -12 -2z"/>
<path d="M917 1723 c-4 -3 -7 -13 -7 -22 1 -13 3 -13 11 2 11 19 8 33 -4 20z"/>
<path d="M866 1639 c5 -19 4 -21 -5 -9 -7 9 -11 10 -11 3 0 -6 5 -15 10 -18
14 -9 25 24 12 37 -8 8 -9 4 -6 -13z"/>
<path d="M780 1511 c0 -5 5 -13 10 -16 6 -3 10 -2 10 4 0 5 -4 13 -10 16 -5 3
-10 2 -10 -4z"/>
<path d="M740 1485 c-7 -9 -11 -17 -9 -20 3 -2 10 5 17 15 14 24 10 26 -8 5z"/>
<path d="M696 1408 c3 -5 -1 -17 -10 -27 -14 -15 -14 -17 4 -18 11 -1 23 3 26
9 4 7 2 8 -4 4 -7 -4 -12 -3 -12 3 0 5 5 13 10 16 15 9 12 22 -5 22 -8 0 -12
-4 -9 -9z"/>
<path d="M1065 1400 c-3 -6 1 -7 9 -4 18 7 21 14 7 14 -6 0 -13 -4 -16 -10z"/>
<path d="M960 1350 c0 -5 5 -10 10 -10 6 0 10 5 10 10 0 6 -4 10 -10 10 -5 0
-10 -4 -10 -10z"/>
<path d="M655 1340 c-3 -5 -1 -10 4 -10 6 0 11 5 11 10 0 6 -2 10 -4 10 -3 0
-8 -4 -11 -10z"/>
<path d="M898 1323 c7 -3 16 -2 19 1 4 3 -2 6 -13 5 -11 0 -14 -3 -6 -6z"/>
<path d="M670 1310 c0 -5 5 -10 10 -10 6 0 10 5 10 10 0 6 -4 10 -10 10 -5 0
-10 -4 -10 -10z"/>
<path d="M768 1273 c6 -2 10 -8 7 -13 -3 -4 5 -6 17 -2 21 5 21 6 2 13 -10 4
-23 8 -29 8 -5 -1 -4 -3 3 -6z"/>
<path d="M620 1245 c0 -8 4 -15 10 -15 5 0 7 7 4 15 -4 8 -8 15 -10 15 -2 0
-4 -7 -4 -15z"/>
<path d="M702 754 c-7 -8 -8 -14 -3 -14 10 0 25 19 20 25 -2 1 -10 -3 -17 -11z"/>
<path d="M710 710 c0 -5 5 -10 10 -10 6 0 10 5 10 10 0 6 -4 10 -10 10 -5 0
-10 -4 -10 -10z"/>
<path d="M902 704 c-7 -8 -8 -14 -3 -14 10 0 25 19 20 25 -2 1 -10 -3 -17 -11z"/>
<path d="M756 667 c3 -10 9 -15 12 -12 3 3 0 11 -7 18 -10 9 -11 8 -5 -6z"/>
<path d="M1057 595 c3 -8 9 -12 14 -9 12 7 11 11 -5 17 -10 4 -13 1 -9 -8z"/>
<path d="M829 558 c7 -9 9 -23 5 -29 -4 -8 -3 -9 5 -5 6 4 15 -2 21 -16 10
-21 10 -21 5 5 -4 20 -2 27 6 22 8 -6 8 -2 0 14 -14 25 -23 28 -14 4 6 -16 3
-15 -18 2 -17 14 -20 15 -10 3z"/>
<path d="M909 438 c4 -28 6 -29 9 -9 2 13 0 27 -5 32 -6 6 -7 -3 -4 -23z"/>
<path d="M940 439 c0 -5 5 -7 10 -4 6 3 10 8 10 11 0 2 -4 4 -10 4 -5 0 -10
-5 -10 -11z"/>
<path d="M980 321 c0 -6 4 -13 10 -16 6 -3 7 1 4 9 -7 18 -14 21 -14 7z"/>
<path d="M1011 323 c-1 -17 16 -25 25 -12 4 7 3 9 -4 5 -5 -3 -13 0 -15 6 -4
9 -6 10 -6 1z"/>
</g>
</svg>
